Coordinates
version=1
nRows=38
nColumns=12
inDegrees=yes

Units are S.I. units (second, meters, Newtons, ...)
Angles are in degrees

endheader
time	SC_y	SC_z	SC_x	AC_y	AC_z	AC_x	GH_y	GH_z	GH_yy	EL_x	PS_y
       0.0              -29.23          33.69          29.24          44.26         -11.45         -8.415           81.8          22.02         -100.1          127.1          123.3
   0.00928              -29.24          33.68          29.24          44.26         -11.45         -8.413          81.79          22.03         -100.1          127.1          123.3
   0.01856              -29.24          33.68          29.23          44.26         -11.44          -8.41          81.79          22.04         -100.1          127.1          123.2
   0.02784              -29.24          33.68          29.23          44.25         -11.44         -8.408          81.79          22.05         -100.1          127.1          123.2
   0.03712              -29.24          33.67          29.23          44.25         -11.44         -8.405          81.78          22.06         -100.1          127.1          123.2
    0.0464              -29.24          33.67          29.22          44.25         -11.43         -8.401          81.78          22.07         -100.1          127.1          123.2
   0.05568              -29.24          33.67          29.22          44.25         -11.43         -8.398          81.78          22.08         -100.1          127.1          123.2
   0.06496              -29.25          33.66          29.21          44.25         -11.42         -8.395          81.77           22.1         -100.1          127.1          123.2
   0.07424              -29.25          33.66          29.21          44.25         -11.42         -8.391          81.77          22.11         -100.1          127.1          123.1
   0.08352              -29.25          33.66           29.2          44.25         -11.41         -8.387          81.76          22.13         -100.1          127.1          123.1
    0.0928              -29.25          33.65           29.2          44.25         -11.41         -8.382          81.76          22.14         -100.1          127.0          123.1
    0.1021              -29.26          33.65          29.19          44.25          -11.4         -8.377          81.75          22.16         -100.1          127.0          123.1
    0.1114              -29.26          33.64          29.19          44.25         -11.39         -8.372          81.75          22.18         -100.1          127.0          123.0
    0.1206              -29.26          33.63          29.18          44.25         -11.39         -8.367          81.74           22.2         -100.1          127.0          123.0
    0.1299              -29.27          33.63          29.17          44.25         -11.38         -8.361          81.74          22.23         -100.1          127.0          123.0
    0.1392              -29.27          33.62          29.16          44.24         -11.37         -8.354          81.73          22.25         -100.1          126.9          122.9
    0.1485              -29.27          33.61          29.15          44.24         -11.36         -8.347          81.72          22.28         -100.1          126.9          122.9
    0.1578              -29.28          33.61          29.14          44.24         -11.35          -8.34          81.71          22.31         -100.1          126.9          122.9
     0.167              -29.28           33.6          29.13          44.24         -11.34         -8.331           81.7          22.34         -100.1          126.9          122.8
    0.1763              -29.29          33.59          29.12          44.24         -11.33         -8.322          81.69          22.38         -100.1          126.8          122.8
    0.1856              -29.29          33.58          29.11          44.24         -11.32         -8.312          81.68          22.42         -100.1          126.8          122.7
    0.1949               -29.3          33.56          29.09          44.23          -11.3         -8.301          81.67          22.46         -100.1          126.8          122.6
    0.2042              -29.31          33.55          29.08          44.23         -11.29         -8.289          81.65          22.51         -100.1          126.7          122.6
    0.2134              -29.32          33.54          29.06          44.23         -11.27         -8.275          81.64          22.56         -100.1          126.7          122.5
    0.2227              -29.33          33.52          29.04          44.23         -11.25          -8.26          81.62          22.62         -100.1          126.7          122.4
     0.232              -29.33           33.5          29.02          44.22         -11.23         -8.243           81.6          22.68         -100.1          126.6          122.3
    0.2413              -29.35          33.48           29.0          44.22          -11.2         -8.224          81.58          22.76         -100.1          126.5          122.2
    0.2506              -29.36          33.46          28.97          44.21         -11.18         -8.203          81.56          22.84         -100.1          126.5          122.1
    0.2598              -29.37          33.43          28.94          44.21         -11.15         -8.179          81.53          22.93         -100.1          126.4          122.0
    0.2691              -29.39           33.4           28.9           44.2         -11.11         -8.152           81.5          23.03         -100.1          126.3          121.8
    0.2784              -29.41          33.37          28.86           44.2         -11.07         -8.121          81.47          23.16         -100.1          126.2          121.6
    0.2877              -29.43          33.33          28.82          44.19         -11.03         -8.085          81.43          23.29         -100.1          126.1          121.5
     0.297              -29.45          33.29          28.77          44.18         -10.97         -8.044          81.38          23.45         -100.1          126.0          121.2
    0.3062              -29.48          33.24           28.7          44.17         -10.91         -7.996          81.33          23.64         -100.1          125.8          121.0
    0.3155              -29.51          33.18          28.63          44.16         -10.84          -7.94          81.26          23.85         -100.1          125.6          120.7
    0.3248              -29.55          33.11          28.55          44.15         -10.76         -7.874          81.19          24.11         -100.1          125.4          120.3
    0.3341               -29.6          33.02          28.45          44.13         -10.66         -7.796           81.1          24.41         -100.1          125.2          119.9
    0.3434              -29.65          32.92          28.33          44.12         -10.54         -7.702           81.0          24.77         -100.1          124.9          119.3
